<svg version="1.1" id="Calque_1" xmlns="http://www.w3.org/2000/svg" xmlns:xlink="http://www.w3.org/1999/xlink" x="0" y="0" viewBox="0 0 32 32" xml:space="preserve"><style>.st0{fill:#fff}.st1{display:none}.st2,.st3{display:inline}.st3{clip-path:url(#SVGID_2_)}.st4{fill:#0093d0}.st5{fill:#ed1b2f}.st6{display:inline;clip-path:url(#SVGID_4_)}.st7{fill:#fbb920}.st8{fill:#bcc1c2}.st10,.st9{display:none}.st9{fill:#006bab}.st10{fill-rule:evenodd;clip-rule:evenodd;fill:#e1241a}.st11{display:none;fill:#9b804d}.st12{display:inline;fill:#007b5e}.st13{fill:#a7a9ac}.st14{fill:#b5985a}.st15{display:inline;fill-rule:evenodd;clip-rule:evenodd;fill:#e4bb0b}.st16{fill:#ae9155}</style><path class="st0" d="M16 .5C7.5.5.5 7.5.5 16s7 15.5 15.5 15.5 15.5-7 15.5-15.5S24.5.5 16 .5z"/><g class="st1"><defs><circle id="SVGID_1_" cx="16" cy="16" r="16"/></defs><clipPath id="SVGID_2_" class="st2"><use xlink:href="#SVGID_1_" overflow="visible"/></clipPath><g class="st3"><path id="polygon6238" class="st4" d="M-6.5 28.6h25.7L29.6 2.9H19.2z"/><path id="path6240" class="st0" d="M17.5 12.8c-.4-.2-.7-.6-.7-1.1 0-.6.5-1.2 1.2-1.2.6 0 1.2.5 1.2 1.2 0 .5-.3.9-.7 1.1v.3c.4 0 .8.2 1.1.3h.4c1.5 0 2.5 1 2.5 2.3 0 .8-.7 1.6-1.6 1.6s-1.6-.8-1.4-1.7c0 0-.1.3-.1.6v4.3c0 .5-.7 3.1-3.7 3.1S12 20.9 12 20.5v-4.3c0-.3-.1-.6-.1-.6.2.8-.6 1.7-1.4 1.7-.8 0-1.6-.8-1.6-1.6 0-1.3 1-2.3 2.5-2.3h.4c.3-.1.7-.3 1.1-.3v-.3c-.4-.2-.7-.6-.7-1.1 0-.6.5-1.2 1.2-1.2s1.2.5 1.2 1.2c0 .5-.3.9-.7 1.1v.4c.1 0 .2.1.3.1.2-.4.5-.7 1-.8v-.4c-.4-.2-.7-.6-.7-1.1 0-.6.5-1.2 1.2-1.2.6 0 1.2.5 1.2 1.2 0 .5-.3.9-.7 1.1v.4c.4.1.8.4 1 .8.1 0 .2-.1.3-.1v-.4z"/><path id="path6242" class="st5" d="M22.1 15.8c0-1.1-.7-2-2.3-2-1 0-2.2.9-2.2 3V20c.4-.3 1.1-.6 1.4-.6v-3c0-1.2.8-1.5 1.2-1.5-.2.2-.4.4-.4.8 0 .6.5 1.1 1.1 1.1.7.1 1.2-.4 1.2-1z"/><path id="path6244" class="st5" d="M9.4 15.8c0-1.1.7-2 2.3-2 1 0 2.2.9 2.2 3V20c-.4-.3-1.1-.6-1.4-.6v-3c0-1.2-.8-1.5-1.2-1.5.2.2.4.4.4.8 0 .6-.5 1.1-1.1 1.1-.7.1-1.2-.4-1.2-1z"/><path id="path6246" class="st5" d="M15.7 23.3c2.6 0 3.1-2.1 3.2-2.7v-.7c-.8.2-1.5.6-2 1.3-.2-.7-.6-1.4-1.2-1.8-.6.4-1.1 1-1.2 1.8-.5-.6-1.2-1.1-2-1.3v.7c.1.5.6 2.7 3.2 2.7z"/><path id="path6248" class="st5" d="M15.9 11.9v.9c.4.1.8.4 1 .7-.5.3-.9.9-1.1 1.5-.2-.6-.6-1.2-1.1-1.5.2-.4.5-.7 1-.7v-.9c-.4-.1-.6-.4-.6-.8 0-.5.4-.8.8-.8.5 0 .8.4.8.8-.1.4-.4.7-.8.8z"/><path id="path6250" class="st5" d="M13.7 12.6v.9c1.1.2 1.9 1.4 1.9 2.5v3c-.5.3-1 .9-1.2 1.4l-.1-.1v-3.9c0-1.2-.6-2.4-1.8-2.8 0 0 .4-.2.8-.2v-.9c-.4-.1-.6-.4-.6-.8 0-.5.4-.8.8-.8s.8.4.8.8-.3.8-.6.9z"/><path id="path6252" class="st5" d="M18.2 12.6v.9c.5 0 .8.2.8.2-1.1.4-1.8 1.6-1.8 2.8v3.9l-.1.1c-.2-.5-.7-1.1-1.2-1.4v-3c0-1.1.8-2.3 1.9-2.5v-1c-.4-.1-.6-.4-.6-.8 0-.5.4-.8.8-.8s.8.4.8.8c0 .3-.2.7-.6.8z"/></g></g><g class="st1"><defs><ellipse id="SVGID_3_" cx="15.9" cy="17" rx="16" ry="16.1"/></defs><clipPath id="SVGID_4_" class="st2"><use xlink:href="#SVGID_3_" overflow="visible"/></clipPath><g class="st6"><path class="st7" d="M14.5 24c-.2-.2-.3-.4-.4-.9-.2-.6-.2-1.6 0-2.3.1-.5.3-1 .4-1.1.1-.1-.1-.7-.3-.9-.1-.1-.1-.2-.1-.2l-.2-.2c-.1-.1-.2-.1-.3-.3-.1-.2-.1-.2-.2-.3-.2-.1-.4-.2-.6-.5-.1-.2-.2-.3-.8-.5-.2-.1-.5-.3-.6-.4-.2-.2-.3-.3-.6-.3-.4-.1-1-.4-1.3-.7-.7-.8-.7-.8-1-.8-.4-.1-.4-.1-.5-.3-.1-.1-.3-.3-.7-.6-2.9-1.9-5.1-5-6.3-8.8C.6 3.7.3 2.3.3 1.6v-.4h.5s.1.3.1.7c.1 1.1.3 2 .7 3.1.2.7.4 1.3.5 1.3l.2-.2c.2-.4 1.2-1.1 2.2-1.5.4-.2.7-.3.7-.3v-.7c0-.4-.1-1-.1-1.5-.1-.8-.1-.9 0-1 .1-.1.8-.1.9 0V2c.1 1.3.2 1.9.2 1.9l.8-.2c1.2-.3 2.2-.5 3.6-.8.4-.1.7-.1.7-.1V1.1h1.2v.6c0 .3.1.6.1.7v.2h.4c1.8-.1 3.2-.1 4.7 0h.6s.1-.4.1-.7c0-.4.1-.7.1-.7 0-.1.2-.1.6-.1h.6v1.8l.4.1c1.2.2 2.7.5 3.5.7 1 .3 1.1.3 1.1.2 0-.1.2-1.3.2-2.1 0-.3.1-.6.1-.6.1-.1.7-.1.8 0 .1 0 .1.1.1.5s-.1 1.6-.2 2.3v.4s.2.1.5.2c1.4.5 2.2 1.1 2.6 1.6.1.2.1.2.2.1 0 0 .2-.4.3-.7.5-1.3.8-2.6.9-3.7 0-.3.1-.6.1-.7h.4v.5c0 1.1-.5 2.9-1.1 4.5-1.2 2.9-2.9 5.4-5.1 7-.3.2-.5.4-.6.6-.1.2-.2.3-.6.4-.2 0-.3.1-.8.6-.6.6-1.2 1.1-1.6 1.2h-.8l-.5.5c-.3.4-.5.5-.7.6-.3.1-.4.2-.4.3 0 .2-.2.6-.4.8-.1.2-.2.2-.1.3.1.2.1 1.3-.1 1.9-.1.3-.2.9-.3 1.2-.2.7-.2.7-.1 1v.3c-.2.2-.1.4.2.5.3.2.4.4.3.6v.2h-.8c-.9 0-.9 0-.9-.3 0-.1.1-.3.3-.6.3-.4.3-.6.1-.6-.2 0-.2 0-.2-.5-.1-.5-.1-.6-.2-.4-.1.3-.4 1.3-.5 1.6 0 .3-.1.5-.2.6-.1.2-.1.2-.6.2-.4 0-.4 0-.5-.2z"/><path class="st0" d="M14.8 22.7c0-.2 0-.3.3-1 .2-.6.2-1 0-1.5-.1-.2-.2-.3-.2-.3-.1.1-.2.8-.2 1.8s0 1.3.1 1.2v-.2zm2.2-1.1c0-.1 0-.7.1-1.2 0-.8 0-1-.1-1.1-.1-.1-.1-.3-.1-.5 0-.3-.2-.5-.2-.2 0 .1 0 .4-.1.7-.1.6-.1 1 .1 1.5.1.2.1.5.1.7s0 .4.1.4.1-.2.1-.3zm-1.1-2.5v-.2c0-.1 0-.1.1-.2s.2-.1.1-.4c0-.1 0-.1.2-.1s.2-.1.2-.2c.1-.3-.4-.5-.5-.2-.1.1-.2.1-.3 0-.1-.1-.2-.1-.3-.2-.2-.1-.2-.2.1-.2.3 0 .3-.1 0-.2s-.5-.2-.6-.4c0-.1-.1-.3-.1-.4 0-.2-.1-.3-.1-.3h-.3c-.1 0-.4 0-.5-.1-.3 0-.4 0-.6.1-.4.2-.5.2-.8-.1-.2-.1-.4-.2-.7-.3l-.9-.3c-.6-.3-.8-.3-.4 0 .1.1.3.2.4.2.3 0 .4.1.8.3.2.1.5.3.6.3l.6.3c.2.1.4.2.3 0 0 0-.1-.1-.1-.2s.4-.1.6 0c.1.1.2.2.3.6.3.7.4.9 1.2.9.3 0 .5.1.5.1v.1s-.1.1-.3.1c-.6.1-.6.2-.2.3.4.1.4.2 0 .3-.3.1-.2.2.2.2.3.3.4.2.5.2zm2.2-2.6c.2-.2.5-.6.5-.7h-.5l-.4.1v.4c0 .3 0 .4.1.4s.2-.1.3-.2z"/><path class="st7" d="M18.9 15.8s0-.1 0 0c-.1-.1-.2 0-.2 0s0 .1.1.1l.1-.1z"/><path class="st0" d="M14.5 15.4c.1-.1.2-.1.3-.1.1 0 .2-.1.3-.1.4-.3 1-.2 1.4.1.1.1.2.1.3.1.1 0 .2 0 .3.1.2.1.2.1.4 0 .4-.3.8-.4 1.1-.3.1.1.2.1.4 0 .7-.2 2-.7 2.3-.9.1 0 .1-.1.1-.2s-.1-.4-.3-.5c-.1-.1-.1-.1-.5.2-.5.5-.9.7-1.3.9-.4.2-.6.2-.6.1l.4-.4c.5-.4 1.3-1.2 1.3-1.2 0-.1-.4-.2-.9-.3-.6-.1-1.7-.3-1.7-.2l-.2.4c-.3.8-.7 1.6-1 1.7-.3.2-.3 0 0-.8.3-.9.4-1.4.4-1.4-.1-.1-1.6-.1-2.5-.1-.8 0-.8 0-.8.1 0 .2.1.7.4 1.5.2.5.2.7.2.8-.2.2-.7-.6-1.1-1.5-.1-.4-.3-.7-.3-.7-.1-.1-1.9.2-2.5.4-.1 0-.2.1-.2.2s.8.9 1.2 1.1c.3.2.5.4.5.5 0 .3-1.1-.3-1.8-.9-.6-.5-.5-.5-.6-.3-.2.2-.3.4-.3.5.1.2 1.1.6 2.2.9.9.3 1.2.3 1.6.2.4-.1.7-.1 1 .1.3.1.3.1.5 0zm8-1.5c1-.6 1.9-1.2 2.7-2 .4-.4.6-.6.6-.7 0-.2-.4-.7-.7-1-.4-.3-.9-.5-1-.5-.1 0-.2.2-.4.5-.4.7-1.1 1.8-1.6 2.3-.2.2-.4.5-.5.6l-.1.2.2.2c.1.1.2.3.2.5s.1.3.1.3c0-.1.2-.2.5-.4zm-13.4 0c.1-.1.2-.3.3-.4.1-.1.1-.2.1-.3l-.4-.4c-.6-.7-1.3-1.7-1.9-2.8-.1-.2-.2-.3-.2-.3-.1 0-.5.2-.9.5-.5.4-.9.9-.8 1.1.1.1.9.9 1.4 1.3.7.6 2.1 1.5 2.2 1.4.1 0 .2 0 .2-.1zm1.2-1.1c.3-.2 1.1-.4 1.7-.5.3-.1.7-.1.7-.1.1 0 .1-.1-.2-1-.1-.4-.3-1.1-.3-1.5-.1-.4-.2-.9-.2-.9 0-.1-.1-.1-.3-.1-.6 0-2.2.3-3.2.5-.5.1-.7.2-.7.3 0 .1.5 1.1.8 1.6.5.9 1.3 1.8 1.5 1.8 0 0 .1 0 .2-.1zm11.1-.4c.7-.8 1.1-1.5 1.6-2.5.2-.4.3-.5.2-.6-.1-.1-1.1-.3-1.9-.5-.9-.1-2.3-.2-2.3-.2s-.1.4-.2.9-.3 1.2-.4 1.7c-.1.5-.2.9-.2.9s.1.1.3.1c.5.1 1.4.3 1.9.5.3.1.5.2.5.2.1 0 .3-.2.5-.5zM16 12c.6 0 1.1 0 1.1.1.2 0 .2-.1.3-.6.1-.7.4-2.3.4-2.6v-.3h-4.3c-.3 0-.3 0-.4.2 0 .2.2 2 .4 2.8 0 .3.1.5.2.5 0 0 .2.1.7 0 .3-.1 1.1-.1 1.6-.1zm10.4-1.5c.3-.4.8-1.1 1.1-1.6.4-.7 1-1.8 1-2 0-.2-.3-.5-.7-.8-.5-.4-2.2-1.2-2.3-1.1 0 0-.1.4-.2.7-.2.9-.6 1.9-.9 2.7-.1.3-.3.6-.3.7 0 0 .2.2.5.3.7.3 1.1.7 1.3 1 .1.1.2.3.2.3.1 0 .2-.1.3-.2zm-21.3-.1c.2-.3.7-.7 1.3-1 .2-.1.4-.3.4-.3s-.1-.3-.2-.5c-.3-.7-.7-2-1-2.9-.1-.4-.2-.7-.2-.8-.1 0-1.1.4-1.7.8-.5.3-1 .8-1.2 1.1l-.2.2.3.5c.6 1.2 2 3.2 2.2 3.2.1 0 .2-.1.3-.3zm3.1-1.7c.3-.1.9-.2 1.2-.3.6-.1 2.1-.4 2.3-.4.3 0 .3 0 .1-.9-.1-.5-.2-1.4-.2-2-.1-1.5-.1-1.4-.3-1.4-.8 0-4.7.8-4.9.9-.2.2.9 4.3 1.1 4.3 0 0 .3-.1.7-.2zm15.4-.3c.3-.6.6-1.9.8-2.9.2-.8.2-.8.1-.9-.3-.2-4.7-1-4.9-.9 0 0-.1.1-.1.2 0 .4-.3 3.2-.4 3.8 0 .2 0 .3.4.3.8.1 2.6.4 3.3.6.6.3.6.3.8-.2zm-7-.5h1.3s.2-1.1.3-2.7c0-.6.1-1.1.1-1.3 0-.3 0-.3-.1-.3-.2-.1-2.9-.2-4.2-.1-.7 0-1.3.1-1.3.1-.1.1.3 4.3.4 4.3h1.1c.8-.1 1.5-.1 2.4 0z"/></g></g><path class="st8" d="M16 1c8.3 0 15 6.7 15 15s-6.7 15-15 15S1 24.3 1 16 7.7 1 16 1m0-1C7.2 0 0 7.2 0 16s7.2 16 16 16 16-7.2 16-16S24.8 0 16 0z"/><path class="st9" d="M8.5 4.3H12v6.9c.5-.4 2-1.6 4-1.6 4 0 7.3 2.8 7.3 9.1 0 5.9-2.5 8.9-7.6 8.9-3 0-5.3-1.5-6.5-4.5-.7-1.8-.8-4.6-.8-6.7V4.3h.1zm7.7 8.6c-2.2 0-4 2-4 5.7 0 4.1 1.7 6 3.9 6 2.3 0 3.9-1.7 3.9-5.8s-1.7-5.9-3.8-5.9z"/><path id="path10" class="st10" d="M8.6 8.6c1-1 2.1-1.7 3.3-2.3 1.3-.6 2.6-.8 4.1-.8 1.4 0 2.7.3 4 .8 1.3.6 2.4 1.3 3.4 2.3 1 .9 1.6 2.1 2.2 3.3.5 1.3.8 2.7.8 4.1 0 1.4-.3 2.8-.8 4.1-.5 1.3-1.2 2.3-2.2 3.3-1 1-2.1 1.7-3.4 2.2-1.3.6-2.6.8-4 .8s-2.7-.3-4.1-.8c-1.2-.5-2.4-1.2-3.3-2.2-1-1-1.7-2.1-2.2-3.3-.5-1.3-.8-2.7-.8-4.1 0-1.4.3-2.8.8-4.1.5-1.2 1.2-2.4 2.2-3.3zm9.9 7.1l1.1 1c.3.3.7.3 1.2 0l2.4-1.6-.6-.6H26l-5 3.6c-.6.3-1.1.4-1.4.1-.4-.3-.6-.5-.6-.4-.3-.4-.8-.5-1.4-.2l-3.1 2.3H8.7l5.3-4H6.3l1.1-1h9.8c.4-.1.8.2 1.3.8z"/><path id="path36916" class="st11" d="M12.5 16c1.2-1.7 2.6-1.4 4.3-1.2-.4-.5-.7-1.1-.7-1.7 0-1.5 1.2-2.7 2.7-2.7 3.2 0 2.8 3.6 1.4 3.6-.3 0-.6-.2-.6-.5-.1-.2 0-.5-.1-.7-.1-.3-.4-.5-.7-.5-.2 0-.4.1-.5.2-.4.4-.2 1.2.1 1.7.4.6 1.1 1 1.8 1h.1c2.2-.2 2.8-2.1 2.3-3.8-.2-.7-1.1-1.8-2-2.2 1.7-1 2.3-3.3 2.2-4.7L4.3 16l18.6 11.5c.1-1.4-.5-3.7-2.2-4.7.9-.4 1.8-1.5 2-2.2.6-1.7-.1-3.5-2.3-3.8h-.1c-.8 0-1.5.4-1.8 1-.3.4-.5 1.2-.1 1.7.1.1.3.2.5.2.3 0 .6-.2.7-.5.1-.2 0-.4.1-.7.1-.3.3-.5.6-.5 1.4 0 1.8 3.6-1.4 3.6-1.5 0-2.7-1.2-2.7-2.7 0-.6.2-1.2.7-1.7-1.8.2-3.2.5-4.4-1.2"/><g id="g2857" transform="translate(1031.084 28.845)" class="st1"><path id="path2859" class="st12" d="M-1010.8-5.4c-.8 0-1.4-.1-1.6-.2-.5-.1-.9-.2-1.3-.5-.1 0-.1-.1-.2-.1l-.1-.1c-.3-.2-.5-.4-.5-.7-.1-.4.1-.8.3-1.1l.3-.3c.1-.1.3 0 .4-.1.1 0 .1-.2.3-.2.1.1 0 .2-.1.3v.1h.2l-.2.2s.1 0 .1.1c-.1.1-.3 0-.5.1v.1c.4 0 .8-.3 1.1-.1 0 0-.1 0-.2.1.2.1.4 0 .6 0 .2.1.4 0 .7 0 0-.1-.1 0-.2-.1.3-.1.6.1.9.2-.1-.1-.3-.2-.4-.2-.1 0-.2-.1-.3-.2v-.1c.1 0 .2 0 .3.1.1 0 .2.1.3 0 .1-.1.2.1.4 0-.1-.2-.4 0-.6-.2.1-.1.3 0 .4-.1.1-.1.3-.1.4-.1h.6l.1.1c.1 0 .3.2.4.1l-.1-.1c-.1 0-.3 0-.3-.1v-.1c.2 0 .3.2.5.1-.3-.2-.6-.1-.9-.2-.2-.1-.4-.2-.6-.4 0 .1-.1 0-.1 0s0-.1-.1-.1c-.2 0-.4 0-.4-.1 0-.2.2-.1.3-.1.4-.1.7.2 1.1.2v.1c0 .1-.1 0-.1 0h.6c.3 0 .6 0 .8.1.1 0 .3.1.4 0-.1-.1-.3 0-.3-.2 0-.1.1 0 .2 0 0-.1.1 0 .2 0-.3-.1-.5-.2-.8-.4.1-.2.4-.1.6-.1v-.1c.1-.1.2 0 .3 0 0-.1-.1-.1-.2-.1-.3 0-.5-.1-.8-.2 0-.1.2 0 .2-.1-.1-.2-.3-.2-.5-.2.1-.1.3-.1.5-.1h.6c-.3-.3-.7 0-1-.2.1-.1.2-.1.2-.2.2.1.5 0 .7 0-.3-.1-.6-.2-.8-.3h-.1c-.1-.1-.2 0-.3 0-.1 0-.1.1-.2.1-.3.1-.5.1-.8 0h.1c.1-.1.3-.1.4-.1h.2c.1 0 0-.1.1-.1h.5c.2.1.4.2.6.2.1 0 .2 0 .3.1l.1.1c.2 0 .4 0 .6.2h.1c0-.2-.1-.3.1-.4 0-.1-.1-.2-.2-.2.3-.1.6-.1.7.2h.1c0-.1.1-.1.1-.2.2 0 .3.2.5.2.4-.1.7 0 1-.1-.3-.1-.5-.1-.7-.2-.1 0-.2 0-.3-.1.1-.1.3-.1.4 0 .1 0 .1-.2.1-.1.2 0 .4.1.5.2.1 0 .3.1.5.2-.1-.3-.6-.3-.6-.6 0-.2.2.1.4 0-.7-.2-1.4-.1-2.1-.2l-.1-.1c.2-.1.4-.2.7-.2 0 0 .1 0 .1.1h.4v-.1c-.3-.1-.5 0-.8-.1-.2-.1-.4 0-.6.1-.6 0-1.2-.1-1.9 0h-.9c-.3.1-.6 0-.8 0h-.7c-.2 0-.4 0-.5-.1v-.1c.5-.1.9 0 1.4 0-.2-.2-.4-.1-.7-.1l-.1-.1c.1-.1.3 0 .5 0v.1h.7c.5-.1 1 0 1.4-.1-.3-.1-.7 0-1.1-.1.1-.1.2-.1.3 0 0-.1-.2 0-.2-.1.3-.1.7 0 1-.1 0-.1-.1-.2 0-.2 0 .1.1.1.1.1.2 0 .4-.1.6.1-.1.1-.2.1-.3.1.1.2.3 0 .4 0v.1c.2 0 .5 0 .7-.1 0 0 .1.2.2 0-.2-.1-.5-.1-.7-.2-.2-.1-.4-.3-.6-.4.1-.1.2-.1.3 0 .1.1.2.1.3.1.1 0 0-.1.1-.1h.5c.2.1.4.1.7.1l.1-.1h.1c-.2-.2-.5 0-.7-.2-.1-.1-.1-.1-.3-.2.1-.1.3 0 .4.1v-.1c.1 0 .1.1.2.1-.1-.2-.3-.1-.4-.2-.3-.1-.6 0-.8-.2h.1v-.1c-.3 0-.5 0-.7-.2.2-.1.5-.1.7 0 .1 0 .2.1.3.2h.1s-.1-.1-.1-.2c.1-.1.3.1.4 0v-.1c.2-.1.5.1.6 0 .2-.2.3 0 .5 0-.2-.1-.3-.2-.5-.2-.2-.1-.5-.1-.7-.2 0-.1.1-.1.2-.1-.1-.1-.3-.1-.4-.2h.6c.1 0 .3.1.4.2.1 0 .1.1.2.2-.1-.2-.3-.4-.5-.4v-.1c.1 0 .1 0 .2.1 0 0 .1 0 0-.1h-.1c.1-.2.3 0 .4 0l.1.1v-.1c-.4-.2-.8-.4-1.2-.4h-1c-.7 0-1.3 0-2-.1.4-.2.8 0 1.2-.1 0-.1-.1 0-.2-.1.3-.2.6.1.8 0-.3-.1-.7-.1-1-.2.1-.1.1-.1.2-.1 0 0-.1-.1 0-.2h.4c-.4-.1-.8-.1-1-.4.5-.2 1-.1 1.5-.2.3-.1.5-.1.8 0 .1 0 .1.1.2.2.1-.1 0-.1-.1-.2-.2-.2-.4-.2-.6-.2-.1 0-.3 0-.4-.1-.4-.2-.9 0-1.4-.1h-.3c0 .1.2 0 .1.1-.1.2-.4 0-.6.1-.4.1-.8 0-1.2-.1.3-.2.6 0 1 0 0 0 .1-.1 0-.1.2-.1.3.1.5 0 0 0-.1-.1 0-.2 0-.1.1 0 .2 0v-.1c.3-.2.6 0 .8.1-.1-.1-.3-.2-.4-.3 0-.1 0-.1.1-.1.3 0 .6 0 .8.1-.3-.3-.7-.3-1.1-.3-.6 0-1.2.2-1.8 0-.9-.1-1.7-.2-2.6-.4l-.1-.1c0-.2.2 0 .2-.1.1-.1.2-.1.3 0v.1h-.1c0 .2.1.1.2.1h.8c.3-.1.7.1 1 .2 0 0-.1 0-.1-.1.1-.2.3 0 .5 0 .3 0 .6.1.9.2.1 0 .1.1.2 0 .1 0 0 0 0-.1-.4-.2-.8-.2-1.2-.4v-.1c.1 0 .1.1.2 0-.3-.4-.9 0-1.3-.2.1-.1 0-.2 0-.3 0-.1.2 0 .4 0h.1c.3 0 .5.2.7.2.1 0 0 0 0-.1 0 0 0-.1.1-.1s.1 0 .1.1h.4c.1.1.2.2.3.2 0-.1-.1-.2-.2-.2v-.1h.2-.3c-.2 0-.4-.2-.6-.3 0-.1.1 0 .2-.1-.2-.2-.6 0-.8-.2.2-.1.4-.1.6-.1-.3-.1-.5 0-.7 0-.1 0-.2 0-.3-.1 0-.1.1 0 .1-.1-.1-.1-.3 0-.5 0-.2-.2-.4-.1-.6 0 .1.1 0 .1 0 .1-.3 0-.5.1-.8.1-.3 0-.6.1-.8.2-.1 0-.3-.2-.4-.2 0-.1.1 0 .2 0 .3 0 .6.1.9 0 .1 0 .3.1.3-.1h-.2c.3-.1.5 0 .8-.1-.1 0-.3-.1-.4-.2.1-.2.3 0 .4 0 .1 0 .1-.1.2 0 .2.2.4.3.6.2-.2-.1-.4-.1-.6-.3.3-.1.6 0 .8.1-.1-.2-.3-.2-.6-.3-.8-.1-1.7-.2-2.5-.1-.1 0-.3.2-.3 0s.3-.1.4-.2c-.1-.1-.3.1-.4-.1.4-.2.8 0 1.2.1 0-.2-.2 0-.3-.2 0 0 0-.1.1-.1.2 0 .4.1.6.1.2-.1.5 0 .7 0-.1-.2-.3-.2-.5-.2-.3-.1-.7 0-1-.2h-.1c.3-.3.6 0 .8 0-.1 0-.1 0-.1-.1.1-.1.2 0 .3 0-.7-.2-1.3-.2-2-.3-.1 0 0-.1 0-.1.3-.2.6 0 .9-.1-.4 0-.8-.1-1.1 0-.3 0-.7.1-1 0 0 0 .1.1 0 .1-.2 0-.4 0-.5.1h.5c-.3.2-.8.1-1.1.3-.1.1-.3 0-.4 0-.2.1-.5.1-.7.3.3 0 .6 0 .8-.1l.1.1c.3-.2.5-.1.8-.1 0 0 .1 0 .1-.1 0 .1.1.2 0 .2-.3.1-.5.2-.7.2h-.3c-.1 0-.1.1-.3.1 0 0-.1.1 0 .1s.1-.1.2-.1 0 .2.1.1c0-.1.1-.1.2-.1.3 0 .7-.2 1 0l-.1.2c-.4 0-.7.1-1.1.1-.3 0-.6.1-1 0-.2 0-.3 0-.5.1h.4c-.1.2-.4.2-.6.3-.1.1-.2.1-.3.2.4-.2.9-.3 1.4-.4.1 0 .1.2 0 .2s-.1.1-.2.1h.4c.1 0 .2 0 .3-.1l-.1-.1c.2-.2.7-.2.7.2 0 .1-.1 0-.1 0-.1 0 0-.1 0-.2-.1 0-.1.1-.2 0 0 .1.2 0 .2.2l-.1.1c-.4-.1-.8.1-1.2.1-.1 0-.4-.1-.5 0 .1 0 .2 0 .2.1s-.1.1-.2.2h.1c.1-.1.2-.1.3-.1.6-.1 1.2-.2 1.8-.2.1 0 .4 0 .4.1 0 .2-.3.1-.6.1-.1 0-.1.2-.2.2-.3.1-.5-.1-.7 0v.1h-.5c0 .1-.1 0-.2 0-.3-.1-.6-.2-.9-.2h.3c.1 0 .1.1.2.1s0 .2 0 .2c-.3-.1-.6-.1-.8 0 .1.1.2 0 .3.1 0 .2-.2 0-.2.1-.2-.1-.4.1-.7.1.2.1.4 0 .7 0 .1 0 .1 0 .2-.1.3 0 .7 0 1 .1v.1h-.3v.1c.2.1.4-.1.7.1l-.1.1h-.4c0 .1-.1 0-.1.1.1.1.3 0 .4 0 0 0 .1 0 0 .1.1.1.3 0 .4.1v.1h-.1c.1.1.3 0 .3.1 0 0 0 .1-.1.1-.4 0-.8 0-1.2-.2v-.1c.2 0 .4.1.6.1-.2-.2-.6-.1-.8-.3.1-.1.1-.1.3-.1-.2-.1-.4 0-.6 0-.1 0-.2-.1-.3-.1v.1c-.3.1-.6.1-.9.2.3 0 .5-.1.7 0 0 .1-.2 0-.2.2h.5c-.4.2-1 .1-1.4.3.3-.1.6-.1.8-.1.1 0 0 .1.1.1.4-.1.7 0 1 .1l.1.1c-.2.1-.4 0-.6 0-.5-.1-1 .1-1.4.3.3-.1.6-.2 1-.2l.1.1c.3 0 .5.1.8 0 .3-.1.6-.1 1 0-.1.1-.3 0-.5 0v.1c-.5.2-1 0-1.5.1-.2.1-.4.1-.6.1.3 0 .7-.2 1 0 .2.1.5.1.7.1v.1c.1 0 .1.1.2.2-.4.1-.7-.1-1.1-.1v.1c.1 0 .3 0 .4.1-.1.1-.1.2-.2.2-.3 0-.5-.1-.7 0 .2 0 .4 0 .4.1s-.1 0-.1.1c-.2-.1-.4 0-.7 0 .1.1.2 0 .3 0v.1s0 .1-.1.1h-1.2c0 .1-.1 0-.1.1.1 0 .3-.1.5 0-.2.2-.5 0-.7.1-.1.1-.3.1-.3.2.3 0 .6-.2.8-.1 0 .1-.1.1-.1.1h.3c-.2.2-.4.2-.6.3.1 0 .3-.1.2 0-.1.2-.4.3-.6.4.1 0 .3-.1.4-.1.2 0 .5-.2.7-.1.1 0 .1.2 0 .2-.3 0-.6 0-1 .1-.1 0-.3.2-.4.3.2-.1.4-.3.7-.2.1 0 .2 0 .3.1 0 .1-.2.2-.1.2.2.1.5-.1.7 0-.2.2-.5.1-.6.3v.1c.1 0 .1 0 .2-.1h.1c.5 0 1-.2 1.5-.1-.1.1-.3.1-.4.1-.7.2-1.4 0-2.1.2.1 0 .2.1.3.2-.2.1-.5 0-.7.1-.1.1-.4 0-.5.2.2 0 .5-.3.6 0 0 .1-.3 0-.2.2 0 0 .2-.1.3 0 0 0-.1 0-.1.1.3 0 .6-.1.8 0-.2.1-.5 0-.7.1v.1h.1c-.1.1-.3 0-.4.2.1 0 .3 0 .4.1.1.1.3-.1.3 0 0 .2-.3.2-.4.2h-1.2v.1c.1 0 .3-.1.4 0-.3.2-.7.1-1.1.3.2 0 .4 0 .7.1-.2.2-.5.1-.8.2.5.1 1.1-.1 1.6 0 0 .1-.1 0-.1.1h-.4c-.1 0-.2.1-.3.1l-.1.1c.2.1.4-.2.6-.1.1.1.3 0 .3.1s-.2 0-.3.2c.1 0 .3 0 .3.1-.3.2-.6.2-.9.1-.3-.1-.7 0-1 0 .1 0 .2 0 .3.1-.1.1-.3.2-.5.3.1 0 .2 0 .3-.1 0 0 .1.1.2 0v-.1h.4c-.1.1-.2 0-.3.1.3 0 .6-.2.8 0-.2.1-.4.2-.7.3-.4.1-.8.2-1.1.4h.4c.5-.1 1-.2 1.5-.1.1 0 .3 0 .3.1-.1.2-.3.3-.6.3v.1c.1 0 .3 0 .4-.1.1 0 .2-.1.3-.2.1 0 .2-.1.3 0v.1c-.2.2-.5.2-.8.3.2.1.4-.1.7-.1.2 0 .4-.1.7-.1 0-.1-.2 0-.1-.1s.3-.4.4-.3c.1.1-.1.2-.1.2.3.3.5-.2.8-.1v-.1h-.3c.3-.2.6-.2.8-.3 0 0-.1 0-.1-.1 0-.2.1-.1.2-.1.5-.1 1-.3 1.4-.1-.3.1-.5.2-.7.1.1.2.4-.1.4.1v.1c0 .1-.1.1-.2.1 0 .2.3 0 .2.1l-.1.2c-.2.1-.4 0-.6 0-.3.1-.5 0-.8.1v.1c-.2.1-.4 0-.6.2h-.1.7c-.1 0-.2.2-.3.2-.2 0-.4-.1-.7.1h.6c-.1.1-.3 0-.4.1v.1h.8l-.6.3s0-.1-.1-.1-.3-.1-.4-.1c-.2 0-.4 0-.6.1h.1c0 .1-.1 0-.2 0-.3-.2-.6-.1-.8-.2-.3-.1-.6-.2-.8 0h-.1c.3.1.6-.1.8.1-.3.3-.7.2-1 .5.5-.2 1-.2 1.4-.2.2 0 .4-.1.6.1-.4.1-.7.3-1.1.4 0 0 0 .1-.1.2-.4.1-.7.3-1 .5.2 0 .4-.1.6-.1.2 0 .6-.3.8-.1-.1.2-.4.2-.5.4v.1l.1-.1s.1 0 .1-.1c.2 0 .3-.1.5-.2h.3c.1-.1.2-.1.3-.2v.1c0 .1-.1.1-.2.2.1.1.2-.1.3-.1.2 0 .3-.2.5-.3.3-.1.7-.1 1-.2.1 0 .2-.1.3-.1.4-.1.8-.1 1.2-.2.2 0 .4-.1.6 0-.4.2-.9.3-1.4.3-.1 0-.2.2-.3.2-.5.1-.9.1-1.4.3.2.1.5-.1.7 0v.1c-.2 0-.3.1-.5.1-.1 0-.2 0-.3.1.2 0 .4-.1.6 0-.1 0-.1.1-.1.2h.1c.1 0 .1-.1.1-.2.1-.1.3-.1.4-.1 0 0 .1.1.1.2.1 0 .2-.2.4-.2.1-.1.2-.1.3-.1.4 0 .8-.1 1.2-.1h-.6c.4-.2.8-.2 1.2-.3h.1c0 .2-.3 0-.4.2.1.1.3 0 .4 0 0 0 0-.1.1-.1.4 0 .9-.2 1.2.1-.3.1-.7-.1-1 0-.3.1-.5.2-.8.3h-.1c-.1 0-.1 0-.2.1h-.3c-.3 0-.7 0-1 .1v.1c-.4.1-.8.3-1.1.4-.3 0-.5.2-.8.3.2.1.3-.1.6-.2h.1c0 .1 0 .2-.1.3 0 .1 0 .1.1.2.1-.2.3-.3.4-.2v.2c.1-.2.4-.4.6-.4.1 0 .1.1 0 .2.2 0 .3-.1.5-.2.1 0 .2.1.3 0 .3-.1.5-.2.8-.3v.1c.1 0 .2-.1.3-.1 0 0 .1 0 .1-.1 0 0 .1 0 0 .1.4 0 .7-.1 1.1-.1-.1-.1-.3 0-.4-.1v-.1h1.1c-.2-.2-.4 0-.7 0l-.1-.1c.1 0 .1-.1.2-.1.4-.2 1-.2 1.4-.2v.2c-.1.4-.2.7-.4 1.1-.2.4-.4.7-.8.9-.4.3-.9.5-1.4.6h-5.7v.4h22.3v-.4h-7.1zm1.4-3.8c.1 0 .2 0 .3.1-.1 0-.3.2-.4 0-.1-.1.1 0 .1-.1-.1 0-.2.1-.2 0s.1-.1.2 0m1.5-3.1c.3 0 .5 0 .8.2v.1h-.4c-.2-.1-.3-.1-.4-.3 0 .1 0 0 0 0m-.8-3.1s0 .1.1.1c.1-.1.3 0 .4 0 0 0 .1.1 0 .1h-.6s-.1-.2.1-.2m-16.2 2.5c-.1-.2.4-.2.6-.2h.1c-.2.2-.6.4-.7.2m1.9 1.2c-.1.2-.4 0-.6 0 0-.1.1-.1.2-.1.1-.1.4 0 .4.1m.3-.2h-.2c-.1-.2.1-.2.2 0zm0-.9s0 .1 0 0c-.3 0-.6.2-.9.1.1 0 .1-.1.2 0v-.1h-.4c0 .1 0 .1-.1.1s-.1 0-.1-.1v.1c0-.1-.1 0-.1 0s-.1 0 0-.1c.3-.2.5-.2.8-.2v.1c.3 0 .5-.1.7 0-.1 0-.1 0-.1.1-.1 0-.1 0 0 0m8.7 3.5h-.2v.1h-.3v-.1s.1-.1.2-.1.1 0 .2.1c0-.1.1-.1.1 0m-.6-5c.1-.1.3-.2.4-.1-.2.1-.3.1-.4.1m.1 2.9s-.1.1-.1 0 0-.2.1-.2c.1-.1.1.1 0 .2m0 .7c0-.2.2-.2.4-.2v.1c0 .1-.1.1-.2.2s-.2.4-.4.3l.2-.4m.5.6c0 .1 0 .1 0 0-.2.2-.3.4-.4.3.1-.2.2-.3.4-.4v.1zm-.1-2c-.1 0-.2-.1-.1-.2h.3c.3-.1.5-.1.8-.1l.1.1v.1c-.2.1-.4-.1-.6 0-.3 0-.4.1-.5.1m1 1.6h-.5c.1-.2.3-.1.3-.2.1.1.3 0 .3.1.1.1 0 .1-.1.1m.4 1.1c0-.1 0-.1 0 0l.1-.1c.3 0 .5 0 .8.2l-.1.1c-.2-.1-.4 0-.6-.1 0-.1-.1-.1-.2-.1m.9.9h-.2v.1c-.1 0-.3 0-.4-.1.1-.2.3-.1.5-.1 0 0 .1 0 .1.1m2.1-2c-.2.1-.6.2-.7 0-.1-.1.1-.1.1-.1.3 0 .5-.1.6.1m-.3-1c0 .1-.1.1-.2.1s-.3 0-.4-.1c.2-.1.6-.3.6 0m-.6-.8c.1.1.2.1.3.1 0 0 .1 0 .1.1s-.1.1-.1 0c-.1-.1-.3 0-.4-.1 0 0 0-.1.1-.1m-.8 2h.3c.1 0 .3 0 .4.1v.1h-.6s-.1 0-.1-.2c-.1.1 0 0 0 0m0 1.8c-.1 0-.3.1-.4 0 .1 0 .1-.2.2-.1s.2 0 .2.1m-.3-1h-.4s-.1 0-.1-.1v-.1s.1.1.1 0c.2 0 .4 0 .4.2.1-.1.1 0 0 0m0-1.9c0 .1-.1 0-.1.1h-.1c.1-.1.1-.1.2-.1m-.1-.6s0 .1 0 0c.1.1.1.2 0 .2s-.1-.1-.2 0c-.2 0-.4 0-.5.1h.5c-.3.2-.7.3-1.1.2h-.1v.1c-.1.1-.2.2-.3.2h-.1v-.1c.1-.1.2-.2.3-.2-.2 0-.4 0-.5-.1.2-.2.4-.2.7-.1l-.1.1c.1-.1.4 0 .4-.1 0 0-.1 0-.1-.1 0 0 .1-.1.2-.1s.3.1.5.1c.1-.1.2-.2.4-.2m-.1-.5c0-.1-.1-.1 0 0h-.1c-.1 0-.2 0-.3-.1-.3 0-.6 0-.8-.1.1-.3.4 0 .6-.2-.4-.2-1 .2-1.3-.1 0 0 .1 0 .2-.1-.1-.1-.1 0-.2 0h-.1c.2-.2.4-.3.6-.4.1-.1.4 0 .5.1-.1.1-.4 0-.5.2v.1h.3c.2 0 .4.2.6.1.1 0 .1-.2.3-.1.1 0 .1.2 0 .2h-.2c0 .3.4 0 .5.3 0 0-.1 0-.1.1m-1.4-3.2c0-.1.1-.1.2 0 .1 0 .3-.1.4 0-.2.2-.6.3-.6 0m1.7-1c.2-.1.5-.1.6.1 0 0-.1.1-.2.1-.3.1-.6.2-.9 0 .2-.1.3-.2.5-.2zm.6 3.1h.1c.2 0 .4 0 .6.2-.1 0-.1.1-.2.2-.1-.2-.4-.1-.5-.4 0 .1 0 .1 0 0 0 .1 0 .1 0 0m0-1.7h.1s.3 0 .2.1c-.1 0-.3 0-.3-.1m-.5-1c.2-.1.4-.1.6 0h.2c-.2.2-.5.2-.8 0m-.1.8c.1 0 .3 0 .2.1-.1.2-.5 0-.7-.1.2-.1.4-.1.5 0m-.4-.8h.1v.1c0-.1-.1-.1-.1-.1m-.1 1.5c-.2.1-.4.2-.6.1.1 0 .2 0 .3-.2.1.1.2 0 .3.1m.2.4s0-.1 0 0l.1-.1c.1.1.4 0 .5.1v.1c-.2 0-.4.1-.6-.1m.1 1.1c0-.1 0-.2.3-.2h.1c.1 0 .3 0 .5.2v.1c-.4 0-.8.2-.9-.1m.7.3c-.1 0-.2 0-.3-.1.3-.1.7-.1 1-.1.1 0 .3 0 .4.1-.4.3-.8.1-1.1.1m1.3-.8c0 .1 0 .1 0 0-.4.1-.8.2-1.2 0 .1-.1.3 0 .4-.1.1-.1.2 0 .3 0 .2-.1.4-.1.5.1m-.5-3c0-.1.2-.1.3 0 0 .1-.1 0-.2 0 .3.2.6-.1.9 0-.3.1-.5.1-.8.2-.2 0-.3-.1-.4-.2.1-.1.2.1.2 0m-.2.3c0 .1 0 .1 0 0-.3 0-.5.2-.7 0 .1-.1.3-.1.5-.1.1.1.1.1.2.1m-1.4-.5c.4.1.8 0 1.3.1-.1.2-.3 0-.4.1-.1 0-.2.1-.3.1-.3-.2-.5-.2-.6-.3-.1 0-.1 0 0 0m-.6-.7c.1 0 .3.1.4.2 0 0 0 .1-.1.1-.2 0-.4 0-.6-.1.2-.1.2-.2.3-.2m-1.1-1.1c.4 0 .7-.1 1.1.1v.1c-.2 0-.4-.2-.6 0-.2.1-.5 0-.8 0v-.1c0-.2.2-.1.3-.1m0 1.4c.1 0 .2 0 .1.1 0 .2-.4.1-.5 0 .1 0 .2-.1.4-.1m-.2 2.3s.1 0 .1.1v.1c-.1 0-.3.1-.3 0s.1-.2.2-.2m-.2.9h-.1c-.1 0 0-.1.1 0 0-.1 0-.1 0 0m.1-6.2h.1c0 .1.2 0 .2.1-.1 0-.3.1-.4 0 .1 0 0 0 .1-.1m-.3.1s.1.1 0 .1h-.2c0-.1.1-.2.2-.1m.2.2s.1 0 .1-.1c0 0 .1 0 0 .1s-.4.2-.6.1c.1-.1.3-.1.5-.1m-.4 2.6c.1 0 .2 0 .3.1-.1.1-.3.2-.4.2v-.1c0-.1 0-.1.1-.2-.1.1-.2.1-.2 0h.2m.1 1.4c.1 0 0 0 0 0l-.3.1h-.1c.1-.2.3-.2.4-.1m-.5-4.5c.1 0 .1.1 0 0-.1.2-.3.3-.4.2.1-.1.2-.1.3-.2 0 0 .1.1.1 0m-.5 0c.1 0 .2-.1.2 0s-.1.3-.2 0c0 .1 0 0 0 0m-1.2.3c.3 0 .6 0 .9.1 0 .1-.1.1-.2.1s-.2.1-.3 0c-.1-.1-.2-.1-.3-.1 0 .1 0 .1-.1.1-.3 0-.5 0-.7-.1.3-.1.5-.1.7-.1m.1 3.3c-.1 0-.4 0-.3-.1 0-.1.1-.1.2-.1s.1.1.2.1c0 0-.1 0-.1.1 0-.1 0-.1 0 0m-.4-1.8s.1-.1.1 0h-.1m.3 2c0 .1 0 .1 0 0-.1.1-.2.1-.3 0l-.1.1c-.1 0-.1-.1-.1-.2s.1-.1.2 0c.1 0 .2.1.3.1m-.5.6c0-.1 0-.1 0 0 .1-.1.1 0 .1 0h.1c-.1.1-.1.1-.2 0m0 4.1c-.1 0-.1-.1 0 0v-.2c.1 0 .1.1 0 .2m-.2-6.1l-.1.1c-.1 0-.3.1-.4.2 0 0 0-.1-.1-.1-.2 0-.5 0-.7-.1.2-.2.4 0 .6-.1.2-.1.5-.1.7 0m-2 5.6c-.2.1-.4.1-.6-.1.1-.1.2 0 .3 0 .1 0 .2-.1.4-.1.2-.1.4-.1.6-.2.1 0 .2.1.3.2-.4.1-.7.2-1 .2m.2.4c-.2.2-.5.2-.7 0 .1-.1.2 0 .3 0 .2.1.3-.1.4 0m-1.5-.5h-.2c0-.2.3-.1.4-.2.2-.1.4 0 .7 0h.1c-.3.2-.7.1-1 .2m2-1.5s-.1 0-.1-.1.1-.2.1-.1c.1.1.1.2.2.3v.1c-.1 0-.1 0-.1-.1l-.1-.1c.1 0 .1 0 0 0m-1.2-3.9c.3-.1.6 0 .9.1 0 .2-.2.1-.3.1h-.5c.1-.1.2 0 .3-.1-.1-.1-.3 0-.4-.1m1.2.7c.1 0 0 .2 0 .2.1 0 .2 0 .3.1 0 .1-.1.1-.1.1-.1-.1-.4.1-.4 0-.1-.2.1 0 .1-.1-.3-.1-.7 0-1-.1.3-.1.7-.2 1.1-.2m.5 1.1s-.1.1 0 0c-.2 0-.3-.1-.4-.2v-.1c.2 0 .4.1.4.3m-1.5.4c.1-.2.3-.1.5 0l-.2.2c-.1 0-.3-.2-.3-.2m.6 1c-.1.1-.2.2-.3.2h-.1s-.1 0 0-.1c.1-.2.3-.2.4-.1m-.1-.8c.1-.1.4-.1.6 0-.2.1-.4 0-.6 0m.8 2.5c-.1.1-.2.2-.4.2s-.4.2-.6.1c.1-.2.3-.1.5-.2.1-.2.3-.2.5-.1m-.1 1.2s.1 0 0 .1h-.2v.1c-.1 0-.4.1-.5 0 .3-.2.5-.2.7-.2m.5 1c-.1.2-.3 0-.4.1-.1-.1-.2 0-.3-.1.1-.1.5 0 .7 0m-.1-3.3h-.1v-.1h.1s.1 0 0 .1m.3.1c-.1 0-.2.1-.3 0 .1-.1.2-.1.3 0m-.3 2.1c.1 0 .3 0 .3.2s-.3.1-.4 0c0-.1 0-.2.1-.2m.4.6s.1.2 0 .2-.4 0-.4-.1c0-.2.3-.2.4-.1m-.5.7h.5c.1 0 .1.2 0 .3-.2-.3-.6-.1-.9-.1-.1 0-.1 0-.1-.1.1-.1.3-.1.5-.1m.5.4v.2h-.1l-.1-.1c.1-.1.2-.1.2-.1m-.8-4.5c.1 0 .3-.3.4-.2h.2c.1.1.2.1.3.2v.1c-.3 0-.6 0-.9-.1m.6-1.2c-.1 0 0-.2-.1-.2.1-.1.2-.1.3 0 .1 0 .2 0 .3.1-.1.1-.4 0-.5.1m0-3.7c.1 0 .1.1 0 0 0 .1-.1.1-.1 0h.1m-.7-.3h.7c-.1 0-.1.1-.2.2-.3.1-.4 0-.5-.2-.1 0-.1 0 0 0m-.3.1h.1v.1s-.2.1-.1-.1c-.1 0 0 0 0 0m-.2.8h.4c-.1.1-.2 0-.3.1.2 0 .4-.1.5.1-.3.1-.6.1-.8 0h-.3c0-.1-.1-.2-.2-.2.2 0 .5.1.7 0m-.3.9c.3-.1.6-.1.9 0v-.1c.1 0 .4-.1.4.1 0 .1-.1.1-.1.1-.6.1-1.2.1-1.8 0 .2-.2.4-.1.6-.1m-.1 3.1c-.1.1-.1.1-.3.1-.1 0-.2 0-.3-.1h.6m-.1 1.2c-.2.1-.6.1-.8 0 .1-.2.2-.1.3-.1.2 0 .4-.1.5.1m-1-3c-.2.2-.4.2-.6.1.2-.1.4 0 .6-.1m0 1.1c.1.2.4-.1.5.1h-.1c-.1.3-.6.2-.8.1-.1 0-.3 0-.4-.1.3-.1.5-.2.8-.1m-1.2.4h.3c.2 0 .3-.1.5 0 0 0 .1.1.1.2-.1.1-.2 0-.3 0v.1c-.2.2-.4-.1-.6-.3 0 .1 0 0 0 0m0 1.1c.1 0 .1 0 .1.1v.1h-.3c0-.1.1-.1.2-.2m-.3 1c.7 0 1.4-.1 2.1-.1-.2-.1-.4 0-.6 0 0 0-.1-.1 0-.1.5-.2 1.1-.1 1.6-.2.2 0 .4 0 .5.2.1.2-.1.1-.2.1-.4 0-.8-.1-1.1.1h.7s.1.1 0 .1c-.4.1-.8.2-1.2.2-.2 0-.4 0-.6-.1h-1.5c.1-.2.3-.2.3-.2m1 .4c-.1 0-.1.1-.2.1 0 .3-.4.2-.6.3-.1 0-.1-.1-.2-.2.1-.1.3 0 .4-.1.1 0 0-.1 0-.1-.3-.1-.5.1-.8 0l-.1-.1c.6-.1 1.1-.2 1.7 0v.1h-.2m-1.6 3.1c-.1 0-.1-.1-.1-.2s.2-.2.2-.1c.1.1.3 0 .4 0 .1 0 .3-.1.5-.2.1 0 .1 0 .2.1.1 0 .2-.1.3 0-.4.4-.9.3-1.5.4m1.4.3v.1c-.1.1-.4.1-.5 0-.1-.1-.3.1-.4 0 .4-.2.9-.2 1.4-.4.2-.1.5-.1.7 0-.4.2-.8.3-1.2.3m1.2-1c-.3.1-.6.1-.8.1-.4-.1-.8.1-1.2.2l-.1-.1c.1-.2.3-.1.4-.2h-.1c.2-.2.4 0 .6-.1v-.1c0-.1.1-.1.1-.1h.5c.1-.1.1-.2.3-.2h.2v.1c-.1.1-.2.1-.3.2v.1c.1 0 .1 0 .2-.1.1 0 .1.1.2.2.1-.1 0 0 0 0m.3-.6c0-.1-.1 0-.2 0-.3-.1-.7 0-1 .1-.1 0-.3.1-.4 0 0-.2.2-.1.3-.2h.3c.4-.2.7-.2 1.1-.1.4 0 .8 0 1.1.3-.2.1-.4.1-.6.1-.1 0-.1-.2-.3-.2-.1 0-.2-.1-.3 0m2.2 2.7c-.1.2-.2 0-.3.1-.1 0-.3.1-.3 0 0 0 0-.1.1-.1s.2 0 .3-.1c.1 0 .2-.1.3 0v.1zm0-1.1c0 .1-.2.1-.2 0s0-.2.1-.2c-.4 0-.8 0-1.2.1-.2.1-.5.2-.6 0 0 0-.1-.1 0-.1.4-.1.8.2 1.1-.2.3.1.6-.1.8.1.1 0 .1.2 0 .3m.1-6c.1 0 .2 0 .2.1s-.1 0-.2 0c0 0-.2-.1 0-.1m.1 2.8c.2.2.3.4.1.4-.1 0-.2-.3-.1-.4m.1.8c0-.1.1-.1.1 0s-.1.1-.1 0m.2.6c-.1-.1-.1-.2-.1-.3h.1v.1s.1.1 0 .2m.1-3.6c-.1 0-.2-.2-.1-.2h.1c.1.1.1.2 0 .2m.2 4.6c-.1 0-.1 0 0 0v-.2.2m.2-5.4c-.1 0-.1 0-.1-.1h.1v.1m0-.5s-.1 0 0-.1.2 0 .2 0c0 .1-.1.1-.2.1m.4 4.9c-.1-.3 0-.6-.1-.9 0-.1.1 0 .1 0 .1 0 .1.1.1.1.1.2.1.6-.1.8m-.1-2s0-.1.1-.1c0 0 .1.1 0 .1 0 .1 0 .1-.1 0 0 .1 0 .1 0 0m-.1-.3c-.1 0 0-.1 0 0 .1-.1.2-.1.3 0h.1l.1.1c-.2.1-.4 0-.5-.1m.1-1.1c0-.1.2-.1.2-.1v.1h.2s.3 0 .1.1c-.1.1-.3 0-.4.1 0-.1-.1 0-.1-.1v-.1c0 .1 0 .1 0 0m.3-2.4c0 .1-.2.1-.3.1l.1-.1h.2m-.2-.9zm.2 2.9h.1l.1.1s.1 0 .1.1-.1.1-.2.1-.1-.2-.1-.3l.1.1c0-.1-.1-.1-.1-.1m-.1-.5c-.1 0-.2-.1-.1-.1-.1-.1-.1-.2 0-.2h.2l.1.1c-.1.1-.3 0-.4.1h.3v.1h-.1zm.1.7s0 .1 0 0c-.1.1-.2.1-.3 0h.3c-.1 0-.1 0 0 0m.3-.8c-.1 0-.1.1-.2 0 0-.1.1-.1.2 0m-.1.4c0-.1-.2-.1-.1-.2h.2c0-.1 0 0-.1.2.1-.1.1 0 0 0m-.4-.9s0-.1 0 0c.1-.2.3-.2.4-.2h.1c-.1.2-.3.2-.5.2m.3-1.7c-.1 0-.1-.2 0-.3h.2c.1 0 .2 0 .2.1s0 .1-.1.1c-.1.2-.3.2-.3.1m0 1.3s.1.1 0 .1-.2 0-.3-.1h.3m-.4 1.4c.1 0 .2.1.1.1 0 0-.1.1-.1-.1 0 .1 0 0 0 0m.3 1.2c0-.1.1-.1.2 0 0 .1 0 .2-.1.2l-.1-.2m.3 4.6c-.1-.3-.2-.7 0-.9h.1c0 .3 0 .7-.1.9m.1-1.6c0-.1-.1-.1 0 0 0-.3-.1-.5.1-.7 0 .2 0 .5-.1.7m.2-1l-.1.1h-.1c0-.1 0-.3.1-.3v.1c.1-.1.2.1.1.1m-1.1-7.5s0 .1 0 0l.3.1v-.1l.1.1c.1-.1.3 0 .3.1-.2.2-.5 0-.7 0-.2 0-.4 0-.6-.1.3-.2.6-.2.8-.2.3 0 .6-.1 1 0-.3.3-.8 0-1.2.1m1.7 11.3c-.3-.1 0-.5 0-.8 0 0 0-.2.1 0v.2s.1 0 .1.1v.2c-.1.1-.2.3-.2.3"/></g><g id="g4941" transform="translate(22.715 .126)" class="st1"><g id="g106" class="st2"><g id="g108"><g id="g114"><g id="g116"><path id="path124-0" class="st13" d="M-14.3 13.8c0 4.2 4.2 4.7 4.2 10.6 0 0 4.2.1 4.2-2.8 0-3-8.8-8.2-7-11.3-1.3 1.4-1.4 3.5-1.4 3.5"/></g></g></g></g><g id="g126" class="st2"><g id="g128"><g id="g134"><g id="g136"><path id="path144-1" class="st13" d="M-12.6 10c-1.9 3.3 7 8.6 7 11.4 0 1-.1 1.6-.8 2 0 0 3.4-1.5 3.8-3.6v-1c-.6-3.3-6.8-5.9-6.9-8.5 0-1.5 1.4-1.9 1.4-1.9h-.6c-3 .1-3.9 1.6-3.9 1.6"/></g></g></g></g><g id="g146" class="st2"><g id="g148"><g id="g154"><g id="g156"><path id="path170-4" class="st14" d="M-.6 9.5c-2.2 0-6.3-.9-7-.9-1.5 0-2.3 1.9-1 3.3 0 0 .6-.7 1.3-.9.9-.3 1.9-.2 3.1-.2 1.3.1 2.9.2 4.8-.2 2.4-.4 3.2-1.3 3.6-2.3-1.1.8-2.6 1.2-4.8 1.2"/></g></g></g></g><g id="g172" class="st2"><g id="g174"><g id="g180"><g id="g182"><path id="path196-5" class="st14" d="M.6 10.8c-2 .3-3.5.3-4.8.2-1.2-.1-2.2-.1-3.1.2-.6.1-1.3.8-1.3.8s1.6 1.6 2.5 2.3c.6-2 4.5-1.2 6-1.7 2-.7 2.8-1.9 3.1-2.7-.4.3-1.2.7-2.4.9"/></g></g></g></g><g id="g198" class="st2"><g id="g200"><g id="g206"><g id="g208"><path id="path222-6" class="st14" d="M.1 12.7c-1.7.5-4 .1-5.3.9-.5.3-.7.9-.7.9s1.2 1 2.3 2.2c0-.3.1-.8.5-1.2.7-.7 4.4-1.2 5.1-3.9-.5.5-1.6 1-1.9 1.1"/></g></g></g></g></g><g id="Layer_3" class="st1"><path class="st15" d="M12.5 20.2c-.4-2 3.7-1.9 5.5-2 4.3-.1 5.8-2.2 6.5-5.2-1.5 1.6-4 2.4-7.2 3.3-1.5.4-4.5.4-5.4 1.4-.4.4-.5 1.1.6 2.5zM4.1 20c-.2-.4.1-1.2.6-1.4.6-.3 1.2-.4 1.8-.4.7 0 1.4.3 2 .7 1 .6 1.8 1.3 2.8 1.8.3.1.5.1.6 0 .1-.1.1-.3-.2-.6-.8-.8-2.2-1.8-2.2-3s2.4-3 5.1-3.8c1.7-.5 3.4-1.2 5-1.8 3.8-1.4 6.3-2.8 7.4-4-.4 1.7-2.2 4.1-3.5 5.1-1.3 1-2.8 1.8-3.8 2.3-1.8.8-4.3 1.2-6.2 1.7-1 .3-2 .7-2.2 1.2-.3.9.4 1.7.8 2.5.2.3.2.6 0 .7-.2.1-.4.2-.6.1-.8-.3-1.5-.9-2.2-.9-.9-.1-1.1.8-1 1.3.1.8 1.5 3.3 4.3 3.9-.1.1-.4.1-.6.1-1.4-.1-3.1-1.2-4.3-2.5-1.2-1.2-2.1-3.2-3-3.2-.4-.1-.5 0-.6.2zm2.5-1.4c-.3.3-.6.5-.9.6-.2 0-.4-.1-.6-.2.3-.4.7-.2 1.5-.4z"/></g><g id="Layer_4"><path class="st16" d="M25.1 20.9c-1.8 3.2-5.2 5.3-9 5.3-5.7 0-10.4-4.6-10.4-10.4 0-1.9.5-3.6 1.4-5.2-.2.2-.3.5-.4.7-2.8 5-1.1 11.3 3.9 14.2 5 2.9 11.4 1.2 14.2-3.8.1-.3.3-.5.3-.8z"/><path class="st16" d="M13.6 7.7c-1.5.3-4 1.8-4.5 4.4 1.6-1.9 3.2-2.9 4.5-3.1-1.3 1-2.5 3.2-2.1 4.8.7-1.7 1.9-3.3 3-3.9-.6 1-.8 3.5-.2 4.6.1-1.4.6-3.3 1.3-4.2l.2 1.8h-.2l.3 1.8h-.2l.2 1.8h-.2l.3 1.8-1 .5h2.2l-.9-.4-.3.2.3-.2.3-1.8h-.2l.2-1.8h-.2l.3-1.8h-.2l.2-1.8c.7.9 1.2 2.8 1.3 4.2.6-1.1.4-3.6-.2-4.6 1.1.6 2.3 2.3 3 3.9.4-1.6-.8-3.9-2.1-4.8 1.3.2 2.9 1.2 4.5 3.1-.5-2.5-3-4-4.5-4.4 1.6-.2 3.2.4 4.6 1.1-1.6-1.8-3.9-2.5-5.5-2.3.3-.3.5-.4.9-.5-.7-.3-1.7-.1-2.1.3 0 0-.1-.8-.5-1.2-.5.3-.6 1.2-.6 1.2-.4-.4-1.4-.6-2.1-.3.4.1.6.3.9.5-1.5-.3-3.8.4-5.4 2.2 1.5-.7 3.1-1.2 4.7-1.1"/><path class="st16" d="M16.6 19.3c-.1.1-.3.2-.4.3-.2-.1-.3-.2-.4-.3-.8-.4-6.4-4.1-8.8-1.5 2.2-.9 5.5.8 8.2 2.4-.7.5-1.5 1-2.1 1.4-1-1-1.4-.8-1.5-.8-.1 0-.2.1-.2.3 0 .2.1.3.3.3.1 0 .3-.1.3-.3V21c.3.2.6.4 1.2 1.1.7.7 1 .9 1.2 1 .1.1.3.1.4.1.1 0 .3-.1.3-.3 0-.2-.1-.3-.3-.3-.2 0-.3.1-.3.3-.2-.1-.4-.4-.8-.8.7-.4 1.5-.9 2.4-1.5.9.6 1.8 1.1 2.4 1.5-.4.4-.6.7-.8.8 0-.2-.1-.3-.3-.3-.2 0-.3.1-.3.3 0 .2.1.3.3.3.1 0 .2 0 .4-.1s.5-.3 1.2-1 .9-.9 1.2-1.1v.1c0 .2.1.3.3.3.1 0 .3-.1.3-.3 0-.1-.1-.2-.2-.3-.1 0-.5-.2-1.5.8-.7-.4-1.4-1-2.1-1.4 2.7-1.6 6-3.3 8.2-2.4-2.4-2.6-8 1.1-8.6 1.5"/><path class="st16" d="M10.3 22.8c-.1 0-.2-.1-.2-.1H10v.1s0 .1.1.2c.4.3 1.1.6 3-.5l-.2-.2c-.1-.1-.2-.3-.3-.4-1 .7-1.8 1.1-2.3.9m11.6 0c-.5.2-1.3-.2-2.3-.8-.1.1-.2.2-.3.4l-.2.2c1.9 1.1 2.7.8 3 .5.1-.1.1-.1.1-.2v-.1h-.1c0-.1-.1 0-.2 0"/></g></svg>